{
	"asset":{
		"generator":"Khronos glTF Blender I/O v4.4.56",
		"version":"2.0"
	},
	"extensionsUsed":[
		"KHR_materials_emissive_strength"
	],
	"scene":0,
	"scenes":[
		{
			"name":"Scene",
			"nodes":[
				0,
				1,
				2,
				3,
				4,
				5,
				6,
				7,
				8,
				9
			]
		}
	],
	"nodes":[
		{
			"camera":0,
			"name":"Camera",
			"rotation":[
				-0.20997299253940582,
				0.3857799470424652,
				0.09062844514846802,
				0.8937962055206299
			],
			"translation":[
				7.358890056610107,
				4.958309173583984,
				6.925790786743164
			]
		},
		{
			"mesh":0,
			"name":"Plane",
			"scale":[
				10,
				1,
				10
			]
		},
		{
			"mesh":1,
			"name":"Sphere",
			"scale":[
				0.5,
				0.5,
				0.5
			],
			"translation":[
				-1.600000023841858,
				0.5,
				0
			]
		},
		{
			"mesh":2,
			"name":"Sphere.002",
			"scale":[
				0.5,
				0.5,
				0.5
			],
			"translation":[
				0,
				0.5,
				1.600000023841858
			]
		},
		{
			"mesh":3,
			"name":"Plane.001",
			"rotation":[
				-1,
				0,
				0,
				4.371138828673793e-08
			],
			"translation":[
				4.039999961853027,
				6.640000343322754,
				0
			]
		},
		{
			"mesh":4,
			"name":"Plane.002",
			"rotation":[
				0.5,
				0.5,
				-0.5,
				0.5
			],
			"scale":[
				10,
				1,
				10
			],
			"translation":[
				-5.429999828338623,
				0,
				0
			]
		},
		{
			"mesh":5,
			"name":"Plane.003",
			"rotation":[
				0.7071068286895752,
				0,
				0,
				0.7071068286895752
			],
			"scale":[
				10,
				1,
				10
			],
			"translation":[
				0,
				0,
				-2.8399999141693115
			]
		},
		{
			"mesh":6,
			"name":"Sphere.003",
			"scale":[
				0.5,
				0.5,
				0.5
			],
			"translation":[
				0,
				0.5,
				0
			]
		},
		{
			"mesh":7,
			"name":"Sphere.004",
			"scale":[
				0.5,
				0.5,
				0.5
			],
			"translation":[
				1.600000023841858,
				0.5,
				1.600000023841858
			]
		},
		{
			"mesh":8,
			"name":"Sphere.001",
			"scale":[
				0.5,
				0.5,
				0.5
			],
			"translation":[
				1.600000023841858,
				0.5,
				0
			]
		}
	],
	"cameras":[
		{
			"name":"Camera",
			"perspective":{
				"aspectRatio":1.7777777777777777,
				"yfov":0.39959648408210363,
				"zfar":100,
				"znear":0.10000000149011612
			},
			"type":"perspective"
		}
	],
	"materials":[
		{
			"doubleSided":true,
			"name":"Material.001",
			"pbrMetallicRoughness":{
				"baseColorTexture":{
					"index":0
				},
				"metallicFactor":0,
				"roughnessFactor":0.5
			}
		},
		{
			"doubleSided":true,
			"name":"Material.003",
			"pbrMetallicRoughness":{
				"baseColorFactor":[
					1,
					0,
					0,
					1
				],
				"metallicFactor":0,
				"roughnessFactor":0
			}
		},
		{
			"doubleSided":true,
			"name":"Material.004",
			"pbrMetallicRoughness":{
				"baseColorFactor":[
					0.04235197603702545,
					0.188619464635849,
					0.004680121783167124,
					1
				],
				"metallicFactor":0
			}
		},
		{
			"doubleSided":true,
			"emissiveFactor":[
				1,
				1,
				1
			],
			"extensions":{
				"KHR_materials_emissive_strength":{
					"emissiveStrength":20
				}
			},
			"name":"Material.002",
			"pbrMetallicRoughness":{
				"baseColorFactor":[
					0.800000011920929,
					0.800000011920929,
					0.800000011920929,
					1
				],
				"metallicFactor":0,
				"roughnessFactor":0.5
			}
		},
		{
			"doubleSided":true,
			"name":"Material.006",
			"pbrMetallicRoughness":{
				"metallicFactor":0,
				"roughnessFactor":0.5
			}
		},
		{
			"doubleSided":true,
			"name":"Material.007",
			"normalTexture":{
				"index":1
			},
			"pbrMetallicRoughness":{
				"baseColorTexture":{
					"index":2
				},
				"metallicFactor":0,
				"roughnessFactor":0.5
			}
		},
		{
			"doubleSided":true,
			"name":"Material.008",
			"pbrMetallicRoughness":{
				"roughnessFactor":0.30000001192092896
			}
		},
		{
			"alphaMode":"MASK",
			"doubleSided":true,
			"name":"Material.009",
			"pbrMetallicRoughness":{
				"baseColorFactor":[
					1,
					1,
					1,
					0
				],
				"roughnessFactor":0
			}
		},
		{
			"doubleSided":true,
			"name":"Material.005",
			"pbrMetallicRoughness":{
				"roughnessFactor":0
			}
		}
	],
	"meshes":[
		{
			"name":"Plane",
			"primitives":[
				{
					"attributes":{
						"POSITION":0,
						"NORMAL":1,
						"TEXCOORD_0":2
					},
					"indices":3,
					"material":0
				}
			]
		},
		{
			"name":"Sphere",
			"primitives":[
				{
					"attributes":{
						"POSITION":4,
						"NORMAL":5,
						"TEXCOORD_0":6
					},
					"indices":7,
					"material":1
				}
			]
		},
		{
			"name":"Sphere.002",
			"primitives":[
				{
					"attributes":{
						"POSITION":8,
						"NORMAL":9,
						"TEXCOORD_0":10
					},
					"indices":7,
					"material":2
				}
			]
		},
		{
			"name":"Plane.001",
			"primitives":[
				{
					"attributes":{
						"POSITION":11,
						"NORMAL":12,
						"TEXCOORD_0":13
					},
					"indices":3,
					"material":3
				}
			]
		},
		{
			"name":"Plane.002",
			"primitives":[
				{
					"attributes":{
						"POSITION":14,
						"NORMAL":15,
						"TEXCOORD_0":16
					},
					"indices":3,
					"material":4
				}
			]
		},
		{
			"name":"Plane.003",
			"primitives":[
				{
					"attributes":{
						"POSITION":17,
						"NORMAL":18,
						"TEXCOORD_0":19
					},
					"indices":3,
					"material":5
				}
			]
		},
		{
			"name":"Sphere.003",
			"primitives":[
				{
					"attributes":{
						"POSITION":20,
						"NORMAL":21,
						"TEXCOORD_0":22
					},
					"indices":7,
					"material":6
				}
			]
		},
		{
			"name":"Sphere.004",
			"primitives":[
				{
					"attributes":{
						"POSITION":23,
						"NORMAL":24,
						"TEXCOORD_0":25
					},
					"indices":7,
					"material":7
				}
			]
		},
		{
			"name":"Sphere.001",
			"primitives":[
				{
					"attributes":{
						"POSITION":26,
						"NORMAL":27,
						"TEXCOORD_0":28
					},
					"indices":7,
					"material":8
				}
			]
		}
	],
	"textures":[
		{
			"sampler":0,
			"source":0
		},
		{
			"sampler":0,
			"source":1
		},
		{
			"sampler":0,
			"source":2
		}
	],
	"images":[
		{
			"mimeType":"image/jpeg",
			"name":"Bricks075A_2K-JPG_Color",
			"uri":"Bricks075A_2K-JPG_Color.jpg"
		},
		{
			"mimeType":"image/jpeg",
			"name":"Bricks066_2K-JPG_NormalDX",
			"uri":"Bricks066_2K-JPG_NormalDX.jpg"
		},
		{
			"mimeType":"image/jpeg",
			"name":"Bricks066_2K-JPG_Color",
			"uri":"Bricks066_2K-JPG_Color.jpg"
		}
	],
	"accessors":[
		{
			"bufferView":0,
			"componentType":5126,
			"count":4,
			"max":[
				1,
				0,
				1
			],
			"min":[
				-1,
				0,
				-1
			],
			"type":"VEC3"
		},
		{
			"bufferView":1,
			"componentType":5126,
			"count":4,
			"type":"VEC3"
		},
		{
			"bufferView":2,
			"componentType":5126,
			"count":4,
			"type":"VEC2"
		},
		{
			"bufferView":3,
			"componentType":5123,
			"count":6,
			"type":"SCALAR"
		},
		{
			"bufferView":4,
			"componentType":5126,
			"count":559,
			"max":[
				0.9999997019767761,
				1,
				0.9999993443489075
			],
			"min":[
				-0.9999990463256836,
				-1,
				-1
			],
			"type":"VEC3"
		},
		{
			"bufferView":5,
			"componentType":5126,
			"count":559,
			"type":"VEC3"
		},
		{
			"bufferView":6,
			"componentType":5126,
			"count":559,
			"type":"VEC2"
		},
		{
			"bufferView":7,
			"componentType":5123,
			"count":2880,
			"type":"SCALAR"
		},
		{
			"bufferView":8,
			"componentType":5126,
			"count":559,
			"max":[
				0.9999997019767761,
				1,
				0.9999993443489075
			],
			"min":[
				-0.9999990463256836,
				-1,
				-1
			],
			"type":"VEC3"
		},
		{
			"bufferView":9,
			"componentType":5126,
			"count":559,
			"type":"VEC3"
		},
		{
			"bufferView":10,
			"componentType":5126,
			"count":559,
			"type":"VEC2"
		},
		{
			"bufferView":11,
			"componentType":5126,
			"count":4,
			"max":[
				1,
				0,
				1
			],
			"min":[
				-1,
				0,
				-1
			],
			"type":"VEC3"
		},
		{
			"bufferView":12,
			"componentType":5126,
			"count":4,
			"type":"VEC3"
		},
		{
			"bufferView":13,
			"componentType":5126,
			"count":4,
			"type":"VEC2"
		},
		{
			"bufferView":14,
			"componentType":5126,
			"count":4,
			"max":[
				1,
				0,
				1
			],
			"min":[
				-1,
				0,
				-1
			],
			"type":"VEC3"
		},
		{
			"bufferView":15,
			"componentType":5126,
			"count":4,
			"type":"VEC3"
		},
		{
			"bufferView":16,
			"componentType":5126,
			"count":4,
			"type":"VEC2"
		},
		{
			"bufferView":17,
			"componentType":5126,
			"count":4,
			"max":[
				1,
				0,
				1
			],
			"min":[
				-1,
				0,
				-1
			],
			"type":"VEC3"
		},
		{
			"bufferView":18,
			"componentType":5126,
			"count":4,
			"type":"VEC3"
		},
		{
			"bufferView":19,
			"componentType":5126,
			"count":4,
			"type":"VEC2"
		},
		{
			"bufferView":20,
			"componentType":5126,
			"count":559,
			"max":[
				0.9999997019767761,
				1,
				0.9999993443489075
			],
			"min":[
				-0.9999990463256836,
				-1,
				-1
			],
			"type":"VEC3"
		},
		{
			"bufferView":21,
			"componentType":5126,
			"count":559,
			"type":"VEC3"
		},
		{
			"bufferView":22,
			"componentType":5126,
			"count":559,
			"type":"VEC2"
		},
		{
			"bufferView":23,
			"componentType":5126,
			"count":559,
			"max":[
				0.9999997019767761,
				1,
				0.9999993443489075
			],
			"min":[
				-0.9999990463256836,
				-1,
				-1
			],
			"type":"VEC3"
		},
		{
			"bufferView":24,
			"componentType":5126,
			"count":559,
			"type":"VEC3"
		},
		{
			"bufferView":25,
			"componentType":5126,
			"count":559,
			"type":"VEC2"
		},
		{
			"bufferView":26,
			"componentType":5126,
			"count":559,
			"max":[
				0.9999997019767761,
				1,
				0.9999993443489075
			],
			"min":[
				-0.9999990463256836,
				-1,
				-1
			],
			"type":"VEC3"
		},
		{
			"bufferView":27,
			"componentType":5126,
			"count":559,
			"type":"VEC3"
		},
		{
			"bufferView":28,
			"componentType":5126,
			"count":559,
			"type":"VEC2"
		}
	],
	"bufferViews":[
		{
			"buffer":0,
			"byteLength":48,
			"byteOffset":0,
			"target":34962
		},
		{
			"buffer":0,
			"byteLength":48,
			"byteOffset":48,
			"target":34962
		},
		{
			"buffer":0,
			"byteLength":32,
			"byteOffset":96,
			"target":34962
		},
		{
			"buffer":0,
			"byteLength":12,
			"byteOffset":128,
			"target":34963
		},
		{
			"buffer":0,
			"byteLength":6708,
			"byteOffset":140,
			"target":34962
		},
		{
			"buffer":0,
			"byteLength":6708,
			"byteOffset":6848,
			"target":34962
		},
		{
			"buffer":0,
			"byteLength":4472,
			"byteOffset":13556,
			"target":34962
		},
		{
			"buffer":0,
			"byteLength":5760,
			"byteOffset":18028,
			"target":34963
		},
		{
			"buffer":0,
			"byteLength":6708,
			"byteOffset":23788,
			"target":34962
		},
		{
			"buffer":0,
			"byteLength":6708,
			"byteOffset":30496,
			"target":34962
		},
		{
			"buffer":0,
			"byteLength":4472,
			"byteOffset":37204,
			"target":34962
		},
		{
			"buffer":0,
			"byteLength":48,
			"byteOffset":41676,
			"target":34962
		},
		{
			"buffer":0,
			"byteLength":48,
			"byteOffset":41724,
			"target":34962
		},
		{
			"buffer":0,
			"byteLength":32,
			"byteOffset":41772,
			"target":34962
		},
		{
			"buffer":0,
			"byteLength":48,
			"byteOffset":41804,
			"target":34962
		},
		{
			"buffer":0,
			"byteLength":48,
			"byteOffset":41852,
			"target":34962
		},
		{
			"buffer":0,
			"byteLength":32,
			"byteOffset":41900,
			"target":34962
		},
		{
			"buffer":0,
			"byteLength":48,
			"byteOffset":41932,
			"target":34962
		},
		{
			"buffer":0,
			"byteLength":48,
			"byteOffset":41980,
			"target":34962
		},
		{
			"buffer":0,
			"byteLength":32,
			"byteOffset":42028,
			"target":34962
		},
		{
			"buffer":0,
			"byteLength":6708,
			"byteOffset":42060,
			"target":34962
		},
		{
			"buffer":0,
			"byteLength":6708,
			"byteOffset":48768,
			"target":34962
		},
		{
			"buffer":0,
			"byteLength":4472,
			"byteOffset":55476,
			"target":34962
		},
		{
			"buffer":0,
			"byteLength":6708,
			"byteOffset":59948,
			"target":34962
		},
		{
			"buffer":0,
			"byteLength":6708,
			"byteOffset":66656,
			"target":34962
		},
		{
			"buffer":0,
			"byteLength":4472,
			"byteOffset":73364,
			"target":34962
		},
		{
			"buffer":0,
			"byteLength":6708,
			"byteOffset":77836,
			"target":34962
		},
		{
			"buffer":0,
			"byteLength":6708,
			"byteOffset":84544,
			"target":34962
		},
		{
			"buffer":0,
			"byteLength":4472,
			"byteOffset":91252,
			"target":34962
		}
	],
	"samplers":[
		{
			"magFilter":9729,
			"minFilter":9987
		}
	],
	"buffers":[
		{
			"byteLength":95724,
			"uri":"test.bin"
		}
	]
}
