{
	"asset":{
		"generator":"Khronos glTF Blender I/O v4.4.56",
		"version":"2.0"
	},
	"extensionsUsed":[
		"KHR_lights_punctual"
	],
	"extensionsRequired":[
		"KHR_lights_punctual"
	],
	"extensions":{
		"KHR_lights_punctual":{
			"lights":[
				{
					"color":[
						1,
						1,
						1
					],
					"intensity":135.87853266470566,
					"type":"point",
					"name":"Light"
				},
				{
					"color":[
						1,
						1,
						1
					],
					"intensity":135.87853266470566,
					"type":"point",
					"name":"Light.004"
				}
			]
		}
	},
	"scene":0,
	"scenes":[
		{
			"name":"Scene",
			"nodes":[
				1,
				3,
				4,
				5,
				6
			]
		}
	],
	"nodes":[
		{
			"camera":0,
			"name":"Camera",
			"rotation":[
				-0.01962050050497055,
				0.9020060896873474,
				0.041236963123083115,
				0.42930129170417786
			],
			"translation":[
				10.98779296875,
				2.5748043060302734,
				-9.559839248657227
			]
		},
		{
			"children":[
				0
			],
			"name":"Empty"
		},
		{
			"mesh":0,
			"name":"READY"
		},
		{
			"children":[
				2
			],
			"name":"Bronze buffalo statue",
			"rotation":[
				0,
				0.9816272854804993,
				0,
				0.19080907106399536
			],
			"scale":[
				20,
				20,
				20
			]
		},
		{
			"extensions":{
				"KHR_lights_punctual":{
					"light":0
				}
			},
			"name":"Light",
			"rotation":[
				-0.28416627645492554,
				0.7269423007965088,
				0.34203392267227173,
				0.5232754945755005
			],
			"translation":[
				-5.019999980926514,
				3.5199999809265137,
				0.8199999928474426
			]
		},
		{
			"mesh":1,
			"name":"Plane",
			"scale":[
				20,
				20,
				20
			]
		},
		{
			"extensions":{
				"KHR_lights_punctual":{
					"light":1
				}
			},
			"name":"Light.001",
			"rotation":[
				0.7480283975601196,
				-0.355129212141037,
				0.48278865218162537,
				0.2850472629070282
			],
			"translation":[
				2.4200000762939453,
				1.7000000476837158,
				1.3799998760223389
			]
		}
	],
	"cameras":[
		{
			"name":"Camera",
			"perspective":{
				"aspectRatio":1.7777777777777777,
				"yfov":0.39959648408210363,
				"zfar":100,
				"znear":0.10000000149011612
			},
			"type":"perspective"
		}
	],
	"animations":[
		{
			"channels":[
				{
					"sampler":0,
					"target":{
						"node":1,
						"path":"translation"
					}
				},
				{
					"sampler":1,
					"target":{
						"node":1,
						"path":"rotation"
					}
				},
				{
					"sampler":2,
					"target":{
						"node":1,
						"path":"scale"
					}
				}
			],
			"name":"EmptyAction",
			"samplers":[
				{
					"input":8,
					"interpolation":"STEP",
					"output":9
				},
				{
					"input":10,
					"interpolation":"LINEAR",
					"output":11
				},
				{
					"input":8,
					"interpolation":"STEP",
					"output":12
				}
			]
		}
	],
	"materials":[
		{
			"doubleSided":true,
			"name":"Buffallo_texture",
			"normalTexture":{
				"index":0
			},
			"pbrMetallicRoughness":{
				"baseColorTexture":{
					"index":1
				},
				"metallicRoughnessTexture":{
					"index":2
				}
			}
		},
		{
			"doubleSided":true,
			"name":"Material.003",
			"pbrMetallicRoughness":{
				"metallicFactor":0,
				"roughnessFactor":0.5
			}
		}
	],
	"meshes":[
		{
			"name":"mesh.002",
			"primitives":[
				{
					"attributes":{
						"POSITION":0,
						"NORMAL":1,
						"TEXCOORD_0":2
					},
					"indices":3,
					"material":0
				}
			]
		},
		{
			"name":"Plane",
			"primitives":[
				{
					"attributes":{
						"POSITION":4,
						"NORMAL":5,
						"TEXCOORD_0":6
					},
					"indices":7,
					"material":1
				}
			]
		}
	],
	"textures":[
		{
			"sampler":0,
			"source":0
		},
		{
			"sampler":0,
			"source":1
		},
		{
			"sampler":0,
			"source":2
		}
	],
	"images":[
		{
			"mimeType":"image/jpeg",
			"name":"Buffallo_texture_Normal_OpenGL",
			"uri":"Buffallo_texture_Normal_OpenGL.jpg"
		},
		{
			"mimeType":"image/jpeg",
			"name":"Buffallo_texture_BaseColor",
			"uri":"Buffallo_texture_BaseColor.jpg"
		},
		{
			"mimeType":"image/png",
			"name":"Buffallo_texture_Metallic.jpg-Buffallo_texture_Roughness.jpg",
			"uri":"Buffallo_texture_Metallic_jpg-Buffallo_texture_Roughness_jpg.png"
		}
	],
	"accessors":[
		{
			"bufferView":0,
			"componentType":5126,
			"count":7206,
			"max":[
				0.06163924187421799,
				0.1507198065519333,
				0.1273580938577652
			],
			"min":[
				-0.06156018003821373,
				0.00029200248536653817,
				-0.1280914694070816
			],
			"type":"VEC3"
		},
		{
			"bufferView":1,
			"componentType":5126,
			"count":7206,
			"type":"VEC3"
		},
		{
			"bufferView":2,
			"componentType":5126,
			"count":7206,
			"type":"VEC2"
		},
		{
			"bufferView":3,
			"componentType":5123,
			"count":39270,
			"type":"SCALAR"
		},
		{
			"bufferView":4,
			"componentType":5126,
			"count":4,
			"max":[
				1,
				0,
				1
			],
			"min":[
				-1,
				0,
				-1
			],
			"type":"VEC3"
		},
		{
			"bufferView":5,
			"componentType":5126,
			"count":4,
			"type":"VEC3"
		},
		{
			"bufferView":6,
			"componentType":5126,
			"count":4,
			"type":"VEC2"
		},
		{
			"bufferView":7,
			"componentType":5123,
			"count":6,
			"type":"SCALAR"
		},
		{
			"bufferView":8,
			"componentType":5126,
			"count":2,
			"max":[
				5
			],
			"min":[
				0.041666666666666664
			],
			"type":"SCALAR"
		},
		{
			"bufferView":9,
			"componentType":5126,
			"count":2,
			"type":"VEC3"
		},
		{
			"bufferView":10,
			"componentType":5126,
			"count":120,
			"max":[
				5
			],
			"min":[
				0.041666666666666664
			],
			"type":"SCALAR"
		},
		{
			"bufferView":11,
			"componentType":5126,
			"count":120,
			"type":"VEC4"
		},
		{
			"bufferView":12,
			"componentType":5126,
			"count":2,
			"type":"VEC3"
		}
	],
	"bufferViews":[
		{
			"buffer":0,
			"byteLength":86472,
			"byteOffset":0,
			"target":34962
		},
		{
			"buffer":0,
			"byteLength":86472,
			"byteOffset":86472,
			"target":34962
		},
		{
			"buffer":0,
			"byteLength":57648,
			"byteOffset":172944,
			"target":34962
		},
		{
			"buffer":0,
			"byteLength":78540,
			"byteOffset":230592,
			"target":34963
		},
		{
			"buffer":0,
			"byteLength":48,
			"byteOffset":309132,
			"target":34962
		},
		{
			"buffer":0,
			"byteLength":48,
			"byteOffset":309180,
			"target":34962
		},
		{
			"buffer":0,
			"byteLength":32,
			"byteOffset":309228,
			"target":34962
		},
		{
			"buffer":0,
			"byteLength":12,
			"byteOffset":309260,
			"target":34963
		},
		{
			"buffer":0,
			"byteLength":8,
			"byteOffset":309272
		},
		{
			"buffer":0,
			"byteLength":24,
			"byteOffset":309280
		},
		{
			"buffer":0,
			"byteLength":480,
			"byteOffset":309304
		},
		{
			"buffer":0,
			"byteLength":1920,
			"byteOffset":309784
		},
		{
			"buffer":0,
			"byteLength":24,
			"byteOffset":311704
		}
	],
	"samplers":[
		{
			"magFilter":9729,
			"minFilter":9987
		}
	],
	"buffers":[
		{
			"byteLength":311728,
			"uri":"alley.bin"
		}
	]
}
