{
	"asset":{
		"generator":"Khronos glTF Blender I/O v4.4.56",
		"version":"2.0"
	},
	"extensionsUsed":[
		"KHR_lights_punctual"
	],
	"extensionsRequired":[
		"KHR_lights_punctual"
	],
	"extensions":{
		"KHR_lights_punctual":{
			"lights":[
				{
					"color":[
						1,
						0.12325415015220642,
						0.18808043003082275
					],
					"intensity":163.05423919764678,
					"type":"point",
					"name":"Light"
				}
			]
		}
	},
	"scene":0,
	"scenes":[
		{
			"name":"Scene",
			"nodes":[
				1,
				3,
				4,
				5
			]
		}
	],
	"nodes":[
		{
			"extensions":{
				"KHR_lights_punctual":{
					"light":0
				}
			},
			"name":"Light",
			"rotation":[
				-0.4272579252719879,
				-0.1880170851945877,
				-0.12324082851409912,
				0.8757351040840149
			],
			"translation":[
				2.804657459259033,
				3.5199999809265137,
				-4.243430137634277
			]
		},
		{
			"children":[
				0
			],
			"name":"Empty"
		},
		{
			"mesh":0,
			"name":"READY"
		},
		{
			"children":[
				2
			],
			"name":"Bronze buffalo statue",
			"rotation":[
				0,
				0.9816272854804993,
				0,
				0.19080907106399536
			],
			"scale":[
				20,
				20,
				20
			]
		},
		{
			"camera":0,
			"name":"Camera",
			"rotation":[
				-0.024481451138854027,
				-0.9531746506690979,
				-0.0803043395280838,
				0.29053422808647156
			],
			"translation":[
				-8.24528980255127,
				3.7006001472473145,
				-12.551300048828125
			]
		},
		{
			"mesh":1,
			"name":"Plane",
			"scale":[
				20,
				20,
				20
			]
		}
	],
	"cameras":[
		{
			"name":"Camera",
			"perspective":{
				"aspectRatio":1.7777777777777777,
				"yfov":0.39959648408210363,
				"zfar":100,
				"znear":0.10000000149011612
			},
			"type":"perspective"
		}
	],
	"animations":[
		{
			"channels":[
				{
					"sampler":0,
					"target":{
						"node":1,
						"path":"rotation"
					}
				}
			],
			"name":"EmptyAction.001",
			"samplers":[
				{
					"input":8,
					"interpolation":"LINEAR",
					"output":9
				}
			]
		}
	],
	"materials":[
		{
			"doubleSided":true,
			"name":"Buffallo_texture",
			"normalTexture":{
				"index":0
			},
			"pbrMetallicRoughness":{
				"baseColorTexture":{
					"index":1
				},
				"metallicRoughnessTexture":{
					"index":2
				}
			}
		},
		{
			"doubleSided":true,
			"name":"Material.003",
			"pbrMetallicRoughness":{
				"metallicFactor":0,
				"roughnessFactor":0.5
			}
		}
	],
	"meshes":[
		{
			"name":"mesh.002",
			"primitives":[
				{
					"attributes":{
						"POSITION":0,
						"NORMAL":1,
						"TEXCOORD_0":2
					},
					"indices":3,
					"material":0
				}
			]
		},
		{
			"name":"Plane",
			"primitives":[
				{
					"attributes":{
						"POSITION":4,
						"NORMAL":5,
						"TEXCOORD_0":6
					},
					"indices":7,
					"material":1
				}
			]
		}
	],
	"textures":[
		{
			"sampler":0,
			"source":0
		},
		{
			"sampler":0,
			"source":1
		},
		{
			"sampler":0,
			"source":2
		}
	],
	"images":[
		{
			"mimeType":"image/jpeg",
			"name":"Buffallo_texture_Normal_OpenGL",
			"uri":"Buffallo_texture_Normal_OpenGL.jpg"
		},
		{
			"mimeType":"image/jpeg",
			"name":"Buffallo_texture_BaseColor",
			"uri":"Buffallo_texture_BaseColor.jpg"
		},
		{
			"mimeType":"image/png",
			"name":"Buffallo_texture_Metallic.jpg-Buffallo_texture_Roughness.jpg",
			"uri":"Buffallo_texture_Metallic_jpg-Buffallo_texture_Roughness_jpg.png"
		}
	],
	"accessors":[
		{
			"bufferView":0,
			"componentType":5126,
			"count":7206,
			"max":[
				0.06163924187421799,
				0.1507198065519333,
				0.1273580938577652
			],
			"min":[
				-0.06156018003821373,
				0.00029200248536653817,
				-0.1280914694070816
			],
			"type":"VEC3"
		},
		{
			"bufferView":1,
			"componentType":5126,
			"count":7206,
			"type":"VEC3"
		},
		{
			"bufferView":2,
			"componentType":5126,
			"count":7206,
			"type":"VEC2"
		},
		{
			"bufferView":3,
			"componentType":5123,
			"count":39270,
			"type":"SCALAR"
		},
		{
			"bufferView":4,
			"componentType":5126,
			"count":4,
			"max":[
				1,
				0,
				1
			],
			"min":[
				-1,
				0,
				-1
			],
			"type":"VEC3"
		},
		{
			"bufferView":5,
			"componentType":5126,
			"count":4,
			"type":"VEC3"
		},
		{
			"bufferView":6,
			"componentType":5126,
			"count":4,
			"type":"VEC2"
		},
		{
			"bufferView":7,
			"componentType":5123,
			"count":6,
			"type":"SCALAR"
		},
		{
			"bufferView":8,
			"componentType":5126,
			"count":121,
			"max":[
				5
			],
			"min":[
				0
			],
			"type":"SCALAR"
		},
		{
			"bufferView":9,
			"componentType":5126,
			"count":121,
			"type":"VEC4"
		}
	],
	"bufferViews":[
		{
			"buffer":0,
			"byteLength":86472,
			"byteOffset":0,
			"target":34962
		},
		{
			"buffer":0,
			"byteLength":86472,
			"byteOffset":86472,
			"target":34962
		},
		{
			"buffer":0,
			"byteLength":57648,
			"byteOffset":172944,
			"target":34962
		},
		{
			"buffer":0,
			"byteLength":78540,
			"byteOffset":230592,
			"target":34963
		},
		{
			"buffer":0,
			"byteLength":48,
			"byteOffset":309132,
			"target":34962
		},
		{
			"buffer":0,
			"byteLength":48,
			"byteOffset":309180,
			"target":34962
		},
		{
			"buffer":0,
			"byteLength":32,
			"byteOffset":309228,
			"target":34962
		},
		{
			"buffer":0,
			"byteLength":12,
			"byteOffset":309260,
			"target":34963
		},
		{
			"buffer":0,
			"byteLength":484,
			"byteOffset":309272
		},
		{
			"buffer":0,
			"byteLength":1936,
			"byteOffset":309756
		}
	],
	"samplers":[
		{
			"magFilter":9729,
			"minFilter":9987
		}
	],
	"buffers":[
		{
			"byteLength":311692,
			"uri":"alley_2.bin"
		}
	]
}
